<?xml version="1.0" standalone="no"?>
<!DOCTYPE svg PUBLIC "-//W3C//DTD SVG 20010904//EN"
 "http://www.w3.org/TR/2001/REC-SVG-20010904/DTD/svg10.dtd">
<svg version="1.0" xmlns="http://www.w3.org/2000/svg"
 width="320.000000pt" height="320.000000pt" viewBox="0 0 320.000000 320.000000"
 preserveAspectRatio="xMidYMid meet">
<metadata>
Created by potrace 1.14, written by Peter Selinger 2001-2017
</metadata>
<g transform="translate(0.000000,320.000000) scale(0.100000,-0.100000)"
fill="#000000" stroke="none">
<path d="M0 1600 l0 -1600 1600 0 1600 0 0 1600 0 1600 -1600 0 -1600 0 0
-1600z m1368 794 c33 -23 29 -54 -34 -255 -44 -142 -53 -183 -44 -195 7 -7 10
-21 6 -29 -4 -12 -26 -15 -115 -15 -68 0 -112 4 -117 11 -3 6 5 23 18 37 17
19 41 82 77 201 46 152 51 177 40 198 -15 29 -5 42 43 53 55 13 102 11 126 -6z
m-307 -150 c44 -26 52 -73 17 -98 -45 -32 -115 -11 -125 36 -6 31 -39 39 -49
13 -9 -22 12 -43 70 -72 100 -50 125 -93 89 -154 -25 -43 -76 -63 -168 -67
-94 -5 -158 10 -191 43 -47 47 -20 105 48 105 45 0 78 -28 78 -65 0 -20 5 -25
24 -25 26 0 51 24 41 39 -3 6 -27 23 -53 38 -77 43 -102 71 -102 114 0 46 37
94 83 109 55 16 198 7 238 -16z m625 5 c52 -16 76 -50 75 -106 0 -26 -7 -68
-15 -92 -20 -55 -20 -65 -1 -57 21 8 29 -17 15 -43 -26 -50 -126 -68 -173 -31
l-26 20 -33 -20 c-97 -59 -209 10 -179 111 19 64 89 95 185 79 28 -5 55 -4 60
1 14 13 13 91 -1 96 -8 3 -13 -5 -13 -21 0 -51 -90 -76 -130 -36 -26 26 -25
43 3 75 35 41 142 52 233 24z m312 10 c17 -6 34 -19 37 -30 6 -18 7 -18 34 2
35 26 93 39 129 30 15 -4 36 -21 47 -37 l20 -30 20 24 c47 54 155 60 190 9 21
-29 19 -59 -9 -155 -23 -79 -23 -82 -5 -82 27 0 24 -32 -4 -58 -48 -45 -130
-49 -174 -9 -30 27 -29 59 3 147 14 38 22 75 19 80 -14 22 -44 -12 -64 -72
-25 -74 -26 -88 -6 -88 8 0 15 -9 15 -19 0 -77 -161 -104 -207 -35 -18 28 -13
65 23 156 13 34 15 51 7 59 -18 18 -41 -17 -69 -107 -20 -67 -23 -88 -14 -99
7 -8 10 -22 6 -30 -4 -12 -26 -15 -115 -15 -68 0 -112 4 -116 11 -4 6 3 21 14
33 12 13 37 71 55 129 30 97 32 108 19 128 -14 18 -14 23 -1 36 8 8 37 18 64
22 27 5 49 9 50 10 1 0 15 -4 32 -10z m47 -648 c7 -13 7 -859 0 -872 -8 -12
-882 -12 -890 0 -7 13 -7 859 0 872 8 12 882 12 890 0z"/>
<path d="M1519 2029 c-8 -16 -8 -24 1 -33 9 -8 16 -5 31 13 10 13 19 27 19 32
0 18 -40 8 -51 -12z"/>
<path d="M1160 1570 l0 -30 440 0 440 0 0 30 0 30 -440 0 -440 0 0 -30z m53
-11 c-17 -17 -37 -1 -22 17 8 10 15 12 23 4 7 -7 7 -13 -1 -21z m53 20 c10
-17 -13 -36 -27 -22 -12 12 -4 33 11 33 5 0 12 -5 16 -11z m44 -23 c-13 -13
-35 7 -25 24 5 8 11 8 21 -1 10 -8 12 -15 4 -23z"/>
<path d="M1760 1135 l0 -385 140 0 140 0 0 385 0 385 -140 0 -140 0 0 -385z"/>
<path d="M1160 875 l0 -125 290 0 290 0 0 125 0 125 -290 0 -290 0 0 -125z"/>
</g>
</svg>
